<svg id="Layer_1" data-name="Layer 1" xmlns="http://www.w3.org/2000/svg" viewBox="0 0 273.01 107"><title>buttom_pp</title><text transform="translate(99 48.17)" font-size="26.98" fill="#fff" font-family="Staatliches-Regular, Staatliches">Public <tspan x="69.86" y="0" letter-spacing="-0.01em">t</tspan><tspan x="80.38" y="0" letter-spacing="0em">oken</tspan><tspan x="129.22" y="0" letter-spacing="-0.02em">s</tspan><tspan x="140.44" y="0">ale</tspan><tspan x="0" y="32.38" letter-spacing="0em">s</tspan><tspan x="11.63" y="32.38" letter-spacing="-0.04em">t</tspan><tspan x="21.45" y="32.38" letter-spacing="0em">a</tspan><tspan x="32.97" y="32.38" letter-spacing="-0.02em">r</tspan><tspan x="45.44" y="32.38" letter-spacing="0em">t</tspan><tspan x="56.1" y="32.38">s in</tspan><tspan x="90.04" y="32.38" letter-spacing="0.02em"> </tspan><tspan x="94.65" y="32.38">Apr</tspan><tspan x="131.73" y="32.38" letter-spacing="0.01em">i</tspan><tspan x="137.66" y="32.38" letter-spacing="-0.04em">l</tspan></text><polygon points="0 27 0 81 15 89 15 89 46 107 46 90 15 72 15 36 0 27" fill="#3000ff"/><polygon points="30 63 15 72 46 90 77 71 62 63 46 72 30 63" fill="#82e2ff"/><polygon points="92 80 46 107 46 90 77 71 77 35 92 27 92 80" fill="#037ce4"/><polygon points="46 35 30 44 30 63 15 72 15 36 46 18 46 35" fill="#008be8"/><polygon points="77 35 46 18 46 35 62 44 62 63 77 71 77 35" fill="#3700ff"/><polygon points="46 0 0 27 15 36 46 18 77 35 92 27 46 0" fill="#80daff"/><polygon points="30 44 46 53 46 72 30 63 30 44" fill="#720fb7"/><polygon points="62 44 46 53 46 72 62 63 62 44" fill="#b202bb"/><polygon points="46 35 30 44 46 53 62 44 46 35" fill="#e700a9"/></svg>